<mxfile host="app.diagrams.net" modified="2022-09-15T07:16:26.335Z" agent="5.0 (Windows NT 10.0; Win64; x64) AppleWebKit/537.36 (KHTML, like Gecko) Chrome/105.0.0.0 Safari/537.36" etag="56cecYuSj8fUxmiUR9ua" version="20.3.0" type="github">
  <diagram id="cl0ErFKXTGucThR32O5f" name="第 1 页">
    <mxGraphModel dx="2426" dy="1311" grid="0" gridSize="10" guides="1" tooltips="1" connect="1" arrows="1" fold="1" page="1" pageScale="1" pageWidth="2339" pageHeight="3300" math="0" shadow="0">
      <root>
        <mxCell id="0" />
        <mxCell id="1" parent="0" />
        <mxCell id="McCzSLE20Thv-WbtYF6e-1" value="" style="rounded=0;whiteSpace=wrap;html=1;" vertex="1" parent="1">
          <mxGeometry x="300" y="180" width="1410" height="680" as="geometry" />
        </mxCell>
        <mxCell id="McCzSLE20Thv-WbtYF6e-2" value="&lt;font style=&quot;font-size: 24px;&quot;&gt;data and mask&lt;/font&gt;" style="shape=datastore;whiteSpace=wrap;html=1;" vertex="1" parent="1">
          <mxGeometry x="430" y="527.5" width="180" height="150" as="geometry" />
        </mxCell>
        <mxCell id="McCzSLE20Thv-WbtYF6e-3" value="ptag" style="ellipse;whiteSpace=wrap;html=1;aspect=fixed;fontSize=24;" vertex="1" parent="1">
          <mxGeometry x="710" y="522.5" width="105" height="105" as="geometry" />
        </mxCell>
        <mxCell id="McCzSLE20Thv-WbtYF6e-4" value="vtag" style="ellipse;whiteSpace=wrap;html=1;aspect=fixed;fontSize=24;" vertex="1" parent="1">
          <mxGeometry x="880" y="522.5" width="105" height="105" as="geometry" />
        </mxCell>
        <mxCell id="McCzSLE20Thv-WbtYF6e-5" value="state" style="ellipse;whiteSpace=wrap;html=1;aspect=fixed;fontSize=24;" vertex="1" parent="1">
          <mxGeometry x="1050" y="522.5" width="105" height="105" as="geometry" />
        </mxCell>
        <mxCell id="McCzSLE20Thv-WbtYF6e-6" value="counter" style="ellipse;whiteSpace=wrap;html=1;aspect=fixed;fontSize=24;" vertex="1" parent="1">
          <mxGeometry x="1210" y="522.5" width="105" height="105" as="geometry" />
        </mxCell>
        <mxCell id="McCzSLE20Thv-WbtYF6e-7" value="ptag" style="ellipse;whiteSpace=wrap;html=1;aspect=fixed;fontSize=24;" vertex="1" parent="1">
          <mxGeometry x="720" y="532.5" width="105" height="105" as="geometry" />
        </mxCell>
        <mxCell id="McCzSLE20Thv-WbtYF6e-8" value="ptag" style="ellipse;whiteSpace=wrap;html=1;aspect=fixed;fontSize=24;" vertex="1" parent="1">
          <mxGeometry x="730" y="542.5" width="105" height="105" as="geometry" />
        </mxCell>
        <mxCell id="McCzSLE20Thv-WbtYF6e-9" value="ptag" style="ellipse;whiteSpace=wrap;html=1;aspect=fixed;fontSize=24;" vertex="1" parent="1">
          <mxGeometry x="740" y="552.5" width="105" height="105" as="geometry" />
        </mxCell>
        <mxCell id="McCzSLE20Thv-WbtYF6e-10" value="ptag" style="ellipse;whiteSpace=wrap;html=1;aspect=fixed;fontSize=24;" vertex="1" parent="1">
          <mxGeometry x="750" y="562.5" width="105" height="105" as="geometry" />
        </mxCell>
        <mxCell id="McCzSLE20Thv-WbtYF6e-11" value="ptag" style="ellipse;whiteSpace=wrap;html=1;aspect=fixed;fontSize=24;" vertex="1" parent="1">
          <mxGeometry x="760" y="572.5" width="105" height="105" as="geometry" />
        </mxCell>
        <mxCell id="McCzSLE20Thv-WbtYF6e-12" value="vtag" style="ellipse;whiteSpace=wrap;html=1;aspect=fixed;fontSize=24;" vertex="1" parent="1">
          <mxGeometry x="890" y="532.5" width="105" height="105" as="geometry" />
        </mxCell>
        <mxCell id="McCzSLE20Thv-WbtYF6e-13" value="vtag" style="ellipse;whiteSpace=wrap;html=1;aspect=fixed;fontSize=24;" vertex="1" parent="1">
          <mxGeometry x="900" y="542.5" width="105" height="105" as="geometry" />
        </mxCell>
        <mxCell id="McCzSLE20Thv-WbtYF6e-14" value="vtag" style="ellipse;whiteSpace=wrap;html=1;aspect=fixed;fontSize=24;" vertex="1" parent="1">
          <mxGeometry x="910" y="552.5" width="105" height="105" as="geometry" />
        </mxCell>
        <mxCell id="McCzSLE20Thv-WbtYF6e-15" value="vtag" style="ellipse;whiteSpace=wrap;html=1;aspect=fixed;fontSize=24;" vertex="1" parent="1">
          <mxGeometry x="920" y="562.5" width="105" height="105" as="geometry" />
        </mxCell>
        <mxCell id="McCzSLE20Thv-WbtYF6e-16" value="vtag" style="ellipse;whiteSpace=wrap;html=1;aspect=fixed;fontSize=24;" vertex="1" parent="1">
          <mxGeometry x="930" y="572.5" width="105" height="105" as="geometry" />
        </mxCell>
        <mxCell id="McCzSLE20Thv-WbtYF6e-17" value="vtag" style="ellipse;whiteSpace=wrap;html=1;aspect=fixed;fontSize=24;" vertex="1" parent="1">
          <mxGeometry x="940" y="582.5" width="105" height="105" as="geometry" />
        </mxCell>
        <mxCell id="McCzSLE20Thv-WbtYF6e-18" value="state" style="ellipse;whiteSpace=wrap;html=1;aspect=fixed;fontSize=24;" vertex="1" parent="1">
          <mxGeometry x="1060" y="532.5" width="105" height="105" as="geometry" />
        </mxCell>
        <mxCell id="McCzSLE20Thv-WbtYF6e-19" value="state" style="ellipse;whiteSpace=wrap;html=1;aspect=fixed;fontSize=24;" vertex="1" parent="1">
          <mxGeometry x="1070" y="542.5" width="105" height="105" as="geometry" />
        </mxCell>
        <mxCell id="McCzSLE20Thv-WbtYF6e-20" value="state" style="ellipse;whiteSpace=wrap;html=1;aspect=fixed;fontSize=24;" vertex="1" parent="1">
          <mxGeometry x="1080" y="552.5" width="105" height="105" as="geometry" />
        </mxCell>
        <mxCell id="McCzSLE20Thv-WbtYF6e-21" value="state" style="ellipse;whiteSpace=wrap;html=1;aspect=fixed;fontSize=24;" vertex="1" parent="1">
          <mxGeometry x="1090" y="562.5" width="105" height="105" as="geometry" />
        </mxCell>
        <mxCell id="McCzSLE20Thv-WbtYF6e-22" value="state" style="ellipse;whiteSpace=wrap;html=1;aspect=fixed;fontSize=24;" vertex="1" parent="1">
          <mxGeometry x="1100" y="572.5" width="105" height="105" as="geometry" />
        </mxCell>
        <mxCell id="McCzSLE20Thv-WbtYF6e-23" value="state" style="ellipse;whiteSpace=wrap;html=1;aspect=fixed;fontSize=24;" vertex="1" parent="1">
          <mxGeometry x="1110" y="582.5" width="105" height="105" as="geometry" />
        </mxCell>
        <mxCell id="McCzSLE20Thv-WbtYF6e-24" value="counter" style="ellipse;whiteSpace=wrap;html=1;aspect=fixed;fontSize=24;" vertex="1" parent="1">
          <mxGeometry x="1220" y="532.5" width="105" height="105" as="geometry" />
        </mxCell>
        <mxCell id="McCzSLE20Thv-WbtYF6e-25" value="counter" style="ellipse;whiteSpace=wrap;html=1;aspect=fixed;fontSize=24;" vertex="1" parent="1">
          <mxGeometry x="1230" y="542.5" width="105" height="105" as="geometry" />
        </mxCell>
        <mxCell id="McCzSLE20Thv-WbtYF6e-26" value="counter" style="ellipse;whiteSpace=wrap;html=1;aspect=fixed;fontSize=24;" vertex="1" parent="1">
          <mxGeometry x="1240" y="552.5" width="105" height="105" as="geometry" />
        </mxCell>
        <mxCell id="McCzSLE20Thv-WbtYF6e-27" value="counter" style="ellipse;whiteSpace=wrap;html=1;aspect=fixed;fontSize=24;" vertex="1" parent="1">
          <mxGeometry x="1250" y="562.5" width="105" height="105" as="geometry" />
        </mxCell>
        <mxCell id="McCzSLE20Thv-WbtYF6e-28" value="counter" style="ellipse;whiteSpace=wrap;html=1;aspect=fixed;fontSize=24;" vertex="1" parent="1">
          <mxGeometry x="1260" y="572.5" width="105" height="105" as="geometry" />
        </mxCell>
        <mxCell id="McCzSLE20Thv-WbtYF6e-29" value="counter" style="ellipse;whiteSpace=wrap;html=1;aspect=fixed;fontSize=24;" vertex="1" parent="1">
          <mxGeometry x="1270" y="582.5" width="105" height="105" as="geometry" />
        </mxCell>
        <mxCell id="McCzSLE20Thv-WbtYF6e-30" value="ptag" style="ellipse;whiteSpace=wrap;html=1;aspect=fixed;fontSize=24;" vertex="1" parent="1">
          <mxGeometry x="770" y="582.5" width="105" height="105" as="geometry" />
        </mxCell>
        <mxCell id="McCzSLE20Thv-WbtYF6e-31" value="Sbuffer" style="text;html=1;strokeColor=none;fillColor=none;align=center;verticalAlign=middle;whiteSpace=wrap;rounded=0;fontSize=24;" vertex="1" parent="1">
          <mxGeometry x="310" y="210" width="140" height="30" as="geometry" />
        </mxCell>
        <mxCell id="McCzSLE20Thv-WbtYF6e-34" value="" style="shape=singleArrow;direction=north;whiteSpace=wrap;html=1;fontSize=24;rotation=-180;" vertex="1" parent="1">
          <mxGeometry x="340" y="80" width="60" height="100" as="geometry" />
        </mxCell>
        <mxCell id="McCzSLE20Thv-WbtYF6e-35" value="" style="shape=singleArrow;direction=north;whiteSpace=wrap;html=1;fontSize=24;rotation=-180;" vertex="1" parent="1">
          <mxGeometry x="350" y="90" width="60" height="100" as="geometry" />
        </mxCell>
        <mxCell id="McCzSLE20Thv-WbtYF6e-36" value="sq&#39;s store enq" style="text;html=1;strokeColor=none;fillColor=none;align=center;verticalAlign=middle;whiteSpace=wrap;rounded=0;fontSize=24;" vertex="1" parent="1">
          <mxGeometry x="255" y="20" width="250" height="50" as="geometry" />
        </mxCell>
        <mxCell id="McCzSLE20Thv-WbtYF6e-37" value="merge logic" style="shape=image;html=1;verticalAlign=top;verticalLabelPosition=bottom;labelBackgroundColor=#ffffff;imageAspect=0;aspect=fixed;image=https://cdn2.iconfinder.com/data/icons/competitive-strategy-and-corporate-training/512/745_Business_gear_management_operation_process_Business_Management-128.png;fontSize=26;" vertex="1" parent="1">
          <mxGeometry x="330" y="270" width="128" height="128" as="geometry" />
        </mxCell>
        <mxCell id="McCzSLE20Thv-WbtYF6e-38" value="insert logic" style="shape=image;html=1;verticalAlign=top;verticalLabelPosition=bottom;labelBackgroundColor=#ffffff;imageAspect=0;aspect=fixed;image=https://cdn2.iconfinder.com/data/icons/competitive-strategy-and-corporate-training/512/745_Business_gear_management_operation_process_Business_Management-128.png;fontSize=26;" vertex="1" parent="1">
          <mxGeometry x="550" y="270" width="128" height="128" as="geometry" />
        </mxCell>
        <mxCell id="McCzSLE20Thv-WbtYF6e-39" value="" style="shape=singleArrow;direction=north;whiteSpace=wrap;html=1;fontSize=24;rotation=-180;" vertex="1" parent="1">
          <mxGeometry x="1550" y="840" width="60" height="100" as="geometry" />
        </mxCell>
        <mxCell id="McCzSLE20Thv-WbtYF6e-40" value="" style="shape=singleArrow;direction=north;whiteSpace=wrap;html=1;fontSize=24;rotation=0;" vertex="1" parent="1">
          <mxGeometry x="1550" y="100" width="60" height="100" as="geometry" />
        </mxCell>
        <mxCell id="McCzSLE20Thv-WbtYF6e-41" value="" style="shape=singleArrow;direction=north;whiteSpace=wrap;html=1;fontSize=24;rotation=0;" vertex="1" parent="1">
          <mxGeometry x="1560" y="110" width="60" height="100" as="geometry" />
        </mxCell>
        <mxCell id="McCzSLE20Thv-WbtYF6e-42" value="load forward res" style="text;html=1;strokeColor=none;fillColor=none;align=center;verticalAlign=middle;whiteSpace=wrap;rounded=0;fontSize=24;" vertex="1" parent="1">
          <mxGeometry x="1465" y="30" width="250" height="50" as="geometry" />
        </mxCell>
        <mxCell id="McCzSLE20Thv-WbtYF6e-43" value="load forward&lt;br&gt;query logic" style="shape=image;html=1;verticalAlign=top;verticalLabelPosition=bottom;labelBackgroundColor=#ffffff;imageAspect=0;aspect=fixed;image=https://cdn2.iconfinder.com/data/icons/competitive-strategy-and-corporate-training/512/745_Business_gear_management_operation_process_Business_Management-128.png;fontSize=26;" vertex="1" parent="1">
          <mxGeometry x="1432" y="219.5" width="128" height="128" as="geometry" />
        </mxCell>
        <mxCell id="McCzSLE20Thv-WbtYF6e-44" value="" style="shape=singleArrow;direction=north;whiteSpace=wrap;html=1;fontSize=24;rotation=0;" vertex="1" parent="1">
          <mxGeometry x="1560" y="110" width="60" height="100" as="geometry" />
        </mxCell>
        <mxCell id="McCzSLE20Thv-WbtYF6e-45" value="" style="shape=singleArrow;direction=north;whiteSpace=wrap;html=1;fontSize=24;rotation=0;" vertex="1" parent="1">
          <mxGeometry x="1560" y="110" width="60" height="100" as="geometry" />
        </mxCell>
        <mxCell id="McCzSLE20Thv-WbtYF6e-47" value="" style="shape=singleArrow;direction=north;whiteSpace=wrap;html=1;fontSize=24;rotation=-180;" vertex="1" parent="1">
          <mxGeometry x="1325" y="90" width="60" height="100" as="geometry" />
        </mxCell>
        <mxCell id="McCzSLE20Thv-WbtYF6e-48" value="" style="shape=singleArrow;direction=north;whiteSpace=wrap;html=1;fontSize=24;rotation=-180;" vertex="1" parent="1">
          <mxGeometry x="1335" y="100" width="60" height="100" as="geometry" />
        </mxCell>
        <mxCell id="McCzSLE20Thv-WbtYF6e-49" value="load forward req" style="text;html=1;strokeColor=none;fillColor=none;align=center;verticalAlign=middle;whiteSpace=wrap;rounded=0;fontSize=24;" vertex="1" parent="1">
          <mxGeometry x="1230" y="30" width="250" height="50" as="geometry" />
        </mxCell>
        <mxCell id="McCzSLE20Thv-WbtYF6e-50" value="write entry to&amp;nbsp;&lt;br&gt;dcache" style="text;html=1;strokeColor=none;fillColor=none;align=center;verticalAlign=middle;whiteSpace=wrap;rounded=0;fontSize=24;" vertex="1" parent="1">
          <mxGeometry x="1455" y="950" width="250" height="50" as="geometry" />
        </mxCell>
        <mxCell id="McCzSLE20Thv-WbtYF6e-51" value="" style="shape=curlyBracket;whiteSpace=wrap;html=1;rounded=1;fontSize=24;rotation=-45;" vertex="1" parent="1">
          <mxGeometry x="720" y="590" width="20" height="120" as="geometry" />
        </mxCell>
        <mxCell id="McCzSLE20Thv-WbtYF6e-52" value="16 entries" style="text;html=1;strokeColor=none;fillColor=none;align=center;verticalAlign=middle;whiteSpace=wrap;rounded=0;fontSize=24;" vertex="1" parent="1">
          <mxGeometry x="615" y="667.5" width="155" height="30" as="geometry" />
        </mxCell>
        <mxCell id="McCzSLE20Thv-WbtYF6e-55" style="edgeStyle=orthogonalEdgeStyle;rounded=0;orthogonalLoop=1;jettySize=auto;html=1;exitX=0.1;exitY=0.5;exitDx=0;exitDy=0;exitPerimeter=0;fontSize=24;strokeWidth=2;" edge="1" parent="1" source="McCzSLE20Thv-WbtYF6e-53" target="McCzSLE20Thv-WbtYF6e-54">
          <mxGeometry relative="1" as="geometry" />
        </mxCell>
        <mxCell id="McCzSLE20Thv-WbtYF6e-53" value="" style="shape=curlyBracket;whiteSpace=wrap;html=1;rounded=1;fontSize=24;rotation=-90;strokeWidth=2;" vertex="1" parent="1">
          <mxGeometry x="505" y="331.59000000000003" width="20" height="220.91" as="geometry" />
        </mxCell>
        <mxCell id="McCzSLE20Thv-WbtYF6e-54" value="" style="shape=curlyBracket;whiteSpace=wrap;html=1;rounded=1;fontSize=24;rotation=90;strokeWidth=2;" vertex="1" parent="1">
          <mxGeometry x="880" y="129" width="20" height="758.91" as="geometry" />
        </mxCell>
      </root>
    </mxGraphModel>
  </diagram>
</mxfile>
